<svg width="370" height="720" viewBox="0 0 370 720" fill="none" xmlns="http://www.w3.org/2000/svg">
<g clip-path="url(#clip0_53_8)">
<path d="M308.613 236.699C303.872 240.575 296.879 239.871 293 235.146L267.615 203.996L247.152 235.784C246.411 236.982 245.454 237.924 244.41 238.718C240.365 244.495 234.399 248.981 227.002 250.829C223.794 251.607 220.61 251.744 217.495 251.514C216.758 251.738 216.063 252.085 215.251 252.178L159.238 256.865C156.099 257.11 153.199 256.012 151.015 254.107C148.284 252.561 146.183 249.961 145.573 246.653L135.361 191.34C134.258 185.325 138.239 179.535 144.276 178.404C150.275 177.298 156.078 181.298 157.194 187.332L165.821 234.041L191.329 231.924C190.921 230.854 190.453 229.839 190.169 228.726L171.944 155.497C171.686 154.422 171.638 153.371 171.514 152.289L145.833 81.8227L86.6988 48.6556C80.5686 41.9471 80.9719 31.5887 87.6166 25.4463C94.2963 19.2941 104.687 19.7034 110.813 26.3451L171.199 60.925C172.905 62.7384 173.982 64.8952 174.681 67.1286C175.33 68.1455 176.125 69.0081 176.544 70.1959L191.854 112.209L238.284 85.784L204.729 29.4776C200.105 21.7168 202.646 11.6003 210.435 6.99916C218.218 2.34712 228.297 4.91309 232.946 12.7119L274.825 82.9586C276.132 85.126 276.714 87.453 276.958 89.8148C277.126 91.1037 276.886 92.3643 276.741 93.6433C276.62 94.2816 276.749 94.9017 276.589 95.483C275.606 99.86 273.004 103.796 268.816 106.157L226.091 130.493C228.26 133.519 229.938 136.948 230.893 140.785L244.875 196.883L256.375 178.023C257.038 176.28 257.982 174.625 259.541 173.384C260.952 172.231 262.593 171.601 264.279 171.261C264.454 171.211 264.648 171.232 264.849 171.22C265.905 171.058 266.974 170.914 268.021 171.064C269.271 171.187 270.485 171.583 271.679 172.175C271.708 172.197 271.724 172.2 271.724 172.2C272.044 172.344 272.391 172.344 272.699 172.551C274.342 173.559 275.483 174.951 276.395 176.497L312.752 221.579C316.625 226.336 313.37 232.827 308.613 236.699Z" fill="url(#paint0_linear_53_8)"/>
<path d="M248.749 252.477C265.539 255.677 276.555 271.882 273.355 288.671C270.155 305.461 253.95 316.477 237.161 313.277C220.371 310.077 209.355 293.872 212.555 277.083C215.755 260.293 231.96 249.277 248.749 252.477Z" fill="url(#paint1_linear_53_8)"/>
</g>
<g clip-path="url(#clip1_53_8)">
<path d="M422.5 416.295C416.728 409.15 406.244 408.039 399.099 413.787L352.271 451.737L331.976 398.786C331.255 396.799 330.139 395.122 328.849 393.637C324.682 383.913 317.3 375.497 307.005 370.514C302.534 368.388 297.9 367.21 293.256 366.592C292.242 366.038 291.328 365.315 290.165 364.929L209.359 340.865C204.824 339.542 200.23 340.266 196.439 342.392C191.954 343.824 188.072 346.997 186.162 351.668L154.2 429.752C150.736 438.245 154.806 447.968 163.323 451.481C171.792 454.945 181.539 450.852 185.028 442.334L212.023 376.397L248.827 387.33C247.899 388.776 246.901 390.123 246.142 391.669L196.921 493.602C196.212 495.101 195.819 496.629 195.305 498.18L135.983 593.769L38.9822 624.329C27.9234 632.298 25.3381 647.631 33.2104 658.688C41.131 669.771 56.5127 672.357 67.5454 664.484L166.818 632.234C169.878 630.094 172.121 627.258 173.832 624.193C175.098 622.899 176.53 621.876 177.509 620.26L212.876 563.269L272.944 616.311L206.403 688.693C197.234 698.67 197.86 714.303 207.887 723.448C217.887 732.666 233.473 731.99 242.691 721.965L325.731 631.668C328.314 628.887 329.882 625.649 330.966 622.256C331.607 620.415 331.641 618.49 331.821 616.568C331.839 615.593 332.219 614.722 332.162 613.82C332.061 607.091 329.448 600.514 324.023 595.763L268.755 546.924C272.868 543.146 276.384 538.626 278.963 533.285L316.701 455.205L327.801 486.426C328.239 489.188 329.118 491.908 331.027 494.208C332.744 496.335 334.961 497.763 337.332 498.779C337.573 498.906 337.865 498.935 338.156 499.013C339.657 499.576 341.183 500.115 342.766 500.216C344.639 500.419 346.543 500.209 348.477 499.707C348.527 499.683 348.551 499.684 348.551 499.684C349.065 499.571 349.575 499.677 350.09 499.467C352.813 498.491 354.914 496.798 356.728 494.807L423.939 439.765C431.085 433.969 428.297 423.44 422.5 416.295Z" fill="url(#paint2_linear_53_8)"/>
<path d="M341.076 281.938C315.443 281.487 294.297 301.901 293.846 327.535C293.394 353.168 313.809 374.314 339.442 374.765C365.075 375.217 386.221 354.803 386.673 329.169C387.124 303.536 366.71 282.39 341.076 281.938Z" fill="url(#paint3_linear_53_8)"/>
</g>
<defs>
<linearGradient id="paint0_linear_53_8" x1="173.916" y1="260.061" x2="222.515" y2="5.08889" gradientUnits="userSpaceOnUse">
<stop stop-color="#D0312D"/>
<stop offset="1" stop-color="#860603"/>
</linearGradient>
<linearGradient id="paint1_linear_53_8" x1="237.161" y1="313.277" x2="248.749" y2="252.477" gradientUnits="userSpaceOnUse">
<stop stop-color="#D0312D"/>
<stop offset="1" stop-color="#860603"/>
</linearGradient>
<linearGradient id="paint2_linear_53_8" x1="231.891" y1="340.676" x2="225.037" y2="729.958" gradientUnits="userSpaceOnUse">
<stop offset="0.25" stop-color="#009999"/>
<stop offset="0.75" stop-color="#00FFFF"/>
</linearGradient>
<linearGradient id="paint3_linear_53_8" x1="341.076" y1="281.938" x2="339.442" y2="374.765" gradientUnits="userSpaceOnUse">
<stop offset="0.015" stop-color="#009999"/>
<stop offset="1" stop-color="#00FFFF"/>
</linearGradient>
<clipPath id="clip0_53_8">
<rect width="300" height="300" fill="white" transform="matrix(0.982316 0.187232 0.187232 -0.982316 19 271.695)"/>
</clipPath>
<clipPath id="clip1_53_8">
<rect width="450" height="450" fill="white" transform="translate(7.99585 276.074) rotate(1.0087)"/>
</clipPath>
</defs>
</svg>
