<svg width="765" height="202" viewBox="0 0 765 202" fill="none" xmlns="http://www.w3.org/2000/svg">
<path d="M26.6094 41.25H46.2031C49.4219 41.25 52.1406 40.1719 54.3594 38.0156C56.6094 35.8281 57.7344 32.75 57.7344 28.7812C57.7344 25.8125 56.5625 23.1562 54.2188 20.8125C51.875 18.4375 49.2031 17.25 46.2031 17.25H17.2344V78H13.8594V13.875H46.2031C50.1406 13.875 53.6094 15.3906 56.6094 18.4219C59.6094 21.4531 61.1094 24.9062 61.1094 28.7812C61.1094 33.5625 59.6562 37.4062 56.75 40.3125C53.8438 43.1875 50.3281 44.625 46.2031 44.625H26.6094V41.25ZM26.6094 48H46.2031C49.4531 48 52.4531 47.2188 55.2031 45.6562C57.9844 44.0625 60.2188 41.7812 61.9062 38.8125C63.625 35.8438 64.4844 32.5 64.4844 28.7812C64.4844 23.9688 62.6406 19.7188 58.9531 16.0312C55.2969 12.3437 51.0469 10.5 46.2031 10.5H10.4844V78H7.10938V7.125H46.2031C49.9844 7.125 53.5469 8.125 56.8906 10.125C60.2344 12.125 62.8906 14.7969 64.8594 18.1406C66.8594 21.4844 67.8594 25.0312 67.8594 28.7812C67.8594 33.0312 66.8594 36.9062 64.8594 40.4062C62.8594 43.875 60.2031 46.5781 56.8906 48.5156C53.6094 50.4219 50.0469 51.375 46.2031 51.375H26.6094V48ZM26.6094 54.75H46.2031C49.5469 54.75 52.75 54.0938 55.8125 52.7812C58.875 51.4375 61.5312 49.6406 63.7812 47.3906C66.0625 45.1094 67.875 42.3594 69.2188 39.1406C70.5625 35.8906 71.2344 32.4375 71.2344 28.7812C71.2344 24.4062 70.0938 20.2969 67.8125 16.4531C65.5312 12.5781 62.4531 9.5 58.5781 7.21875C54.7344 4.90625 50.6094 3.75 46.2031 3.75H3.73438V78H0.359375V0.375H46.2031C51.2031 0.375 55.8906 1.6875 60.2656 4.3125C64.6406 6.90625 68.125 10.3906 70.7188 14.7656C73.3125 19.1406 74.6094 23.8125 74.6094 28.7812C74.6094 33.2188 73.8438 37.3125 72.3125 41.0625C70.7812 44.7812 68.7188 47.875 66.125 50.3438C63.5312 52.8125 60.5156 54.7344 57.0781 56.1094C53.6406 57.4531 50.0156 58.125 46.2031 58.125H26.6094V54.75ZM23.9844 78H20.6094V20.625H46.2031C48.4219 20.625 50.3281 21.4375 51.9219 23.0625C53.5469 24.6875 54.3594 26.5938 54.3594 28.7812C54.3594 34.8438 51.6406 37.875 46.2031 37.875H26.6094V34.5H46.2031C47.7031 34.5 48.875 34.0781 49.7188 33.2344C50.5625 32.3906 50.9844 30.9062 50.9844 28.7812C50.9844 27.4062 50.5156 26.2656 49.5781 25.3594C48.6719 24.4531 47.5469 24 46.2031 24H23.9844V78ZM107.797 34.7344C105.172 37.3594 103.859 40.5312 103.859 44.25C103.859 47.9688 105.172 51.1562 107.797 53.8125C110.453 56.4375 113.641 57.75 117.359 57.75C121.078 57.75 124.25 56.4375 126.875 53.8125C129.531 51.1562 130.859 47.9688 130.859 44.25C130.859 40.5312 129.531 37.3594 126.875 34.7344C124.25 32.0781 121.078 30.75 117.359 30.75C113.641 30.75 110.453 32.0781 107.797 34.7344ZM105.406 56.2031C102.125 52.8906 100.484 48.9062 100.484 44.25C100.484 39.5938 102.125 35.625 105.406 32.3438C108.719 29.0312 112.703 27.375 117.359 27.375C122.016 27.375 125.984 29.0312 129.266 32.3438C132.578 35.625 134.234 39.5938 134.234 44.25C134.234 48.9062 132.578 52.8906 129.266 56.2031C125.984 59.4844 122.016 61.125 117.359 61.125C112.703 61.125 108.719 59.4844 105.406 56.2031ZM103.016 29.9531C99.0781 33.9219 97.1094 38.6875 97.1094 44.25C97.1094 49.8125 99.0781 54.5781 103.016 58.5469C106.984 62.5156 111.766 64.5 117.359 64.5C122.953 64.5 127.719 62.5156 131.656 58.5469C135.625 54.5781 137.609 49.8125 137.609 44.25C137.609 38.6875 135.625 33.9219 131.656 29.9531C127.719 25.9844 122.953 24 117.359 24C111.766 24 106.984 25.9844 103.016 29.9531ZM96.875 56.1094C94.7812 52.4844 93.7344 48.5312 93.7344 44.25C93.7344 39.9688 94.7812 36.0156 96.875 32.3906C99 28.7656 101.875 25.9062 105.5 23.8125C109.125 21.6875 113.078 20.625 117.359 20.625C121.641 20.625 125.594 21.6875 129.219 23.8125C132.844 25.9062 135.703 28.7656 137.797 32.3906C139.922 36.0156 140.984 39.9688 140.984 44.25C140.984 48.5312 139.922 52.4844 137.797 56.1094C135.703 59.7344 132.844 62.6094 129.219 64.7344C125.594 66.8281 121.641 67.875 117.359 67.875C113.078 67.875 109.125 66.8281 105.5 64.7344C101.875 62.6094 99 59.7344 96.875 56.1094ZM92.4688 33.7969C91.0625 37.1094 90.3594 40.5938 90.3594 44.25C90.3594 47.9062 91.0625 51.4062 92.4688 54.75C93.9062 58.0625 95.8281 60.9375 98.2344 63.375C100.672 65.7812 103.547 67.7031 106.859 69.1406C110.203 70.5469 113.703 71.25 117.359 71.25C121.016 71.25 124.5 70.5469 127.812 69.1406C131.156 67.7031 134.031 65.7812 136.438 63.375C138.875 60.9375 140.797 58.0625 142.203 54.75C143.641 51.4062 144.359 47.9062 144.359 44.25C144.359 40.5938 143.641 37.1094 142.203 33.7969C140.797 30.4531 138.875 27.5781 136.438 25.1719C134.031 22.7344 131.156 20.8125 127.812 19.4062C124.5 17.9688 121.016 17.25 117.359 17.25C113.703 17.25 110.203 17.9688 106.859 19.4062C103.547 20.8125 100.672 22.7344 98.2344 25.1719C95.8281 27.5781 93.9062 30.4531 92.4688 33.7969ZM89.375 56.0625C87.7812 52.3125 86.9844 48.375 86.9844 44.25C86.9844 40.125 87.7812 36.1875 89.375 32.4375C91 28.6875 93.1562 25.4688 95.8438 22.7812C98.5625 20.0625 101.797 17.9062 105.547 16.3125C109.297 14.6875 113.234 13.875 117.359 13.875C121.484 13.875 125.422 14.6875 129.172 16.3125C132.922 17.9062 136.141 20.0625 138.828 22.7812C141.547 25.4688 143.703 28.6875 145.297 32.4375C146.922 36.1875 147.734 40.125 147.734 44.25C147.734 48.375 146.922 52.3125 145.297 56.0625C143.703 59.8125 141.547 63.0469 138.828 65.7656C136.141 68.4531 132.922 70.6094 129.172 72.2344C125.422 73.8281 121.484 74.625 117.359 74.625C113.234 74.625 109.297 73.8281 105.547 72.2344C101.797 70.6094 98.5625 68.4531 95.8438 65.7656C93.1562 63.0469 91 59.8125 89.375 56.0625ZM86.2812 31.1719C84.5 35.3281 83.6094 39.6875 83.6094 44.25C83.6094 48.8125 84.5 53.1875 86.2812 57.375C88.0625 61.5312 90.4531 65.125 93.4531 68.1562C96.4844 71.1562 100.078 73.5469 104.234 75.3281C108.422 77.1094 112.797 78 117.359 78C121.922 78 126.281 77.1094 130.438 75.3281C134.625 73.5469 138.219 71.1562 141.219 68.1562C144.25 65.125 146.656 61.5312 148.438 57.375C150.219 53.1875 151.109 48.8125 151.109 44.25C151.109 39.6875 150.219 35.3281 148.438 31.1719C146.656 26.9844 144.25 23.3906 141.219 20.3906C138.219 17.3594 134.625 14.9531 130.438 13.1719C126.281 11.3906 121.922 10.5 117.359 10.5C112.797 10.5 108.422 11.3906 104.234 13.1719C100.078 14.9531 96.4844 17.3594 93.4531 20.3906C90.4531 23.3906 88.0625 26.9844 86.2812 31.1719ZM83.1875 58.6875C81.2188 54.0938 80.2344 49.2812 80.2344 44.25C80.2344 39.2188 81.2188 34.4219 83.1875 29.8594C85.1562 25.2656 87.7969 21.3125 91.1094 18C94.4219 14.6875 98.3594 12.0469 102.922 10.0781C107.516 8.10938 112.328 7.125 117.359 7.125C122.391 7.125 127.188 8.10938 131.75 10.0781C136.344 12.0469 140.297 14.6875 143.609 18C146.922 21.3125 149.562 25.2656 151.531 29.8594C153.5 34.4219 154.484 39.2188 154.484 44.25C154.484 49.2812 153.5 54.0938 151.531 58.6875C149.562 63.25 146.922 67.1875 143.609 70.5C140.297 73.8125 136.344 76.4531 131.75 78.4219C127.188 80.3906 122.391 81.375 117.359 81.375C112.328 81.375 107.516 80.3906 102.922 78.4219C98.3594 76.4531 94.4219 73.8125 91.1094 70.5C87.7969 67.1875 85.1562 63.25 83.1875 58.6875ZM162.078 10.5H165.453V78H162.078V10.5ZM182.328 10.5H185.703V61.125H210.594V64.5H185.703V67.875H210.594V71.25H185.703V74.625H210.594V78H182.328V10.5ZM175.578 10.5H178.953V78H175.578V10.5ZM168.828 10.5H172.203V78H168.828V10.5ZM265.953 44.7188C265.953 40.7188 264.719 37.625 262.25 35.4375C259.781 33.25 256.516 32.1562 252.453 32.1562C249.016 32.1562 246.062 33.3438 243.594 35.7188C241.125 38.0938 239.891 40.9375 239.891 44.25C239.891 46.125 240.141 47.8125 240.641 49.3125C241.141 50.7812 241.812 52.0156 242.656 53.0156C243.531 53.9844 244.562 54.7969 245.75 55.4531C246.938 56.0781 248.172 56.5312 249.453 56.8125C250.766 57.0938 252.156 57.2344 253.625 57.2344C257.188 57.2344 260.438 56.3594 263.375 54.6094V57.9844C260.344 59.5781 257.078 60.375 253.578 60.375C251.328 60.375 249.203 60.0781 247.203 59.4844C245.234 58.8594 243.438 57.9375 241.812 56.7188C240.188 55.4688 238.891 53.7812 237.922 51.6562C236.984 49.5 236.516 47.0312 236.516 44.25C236.516 39.9375 238.031 36.2812 241.062 33.2812C244.094 30.2812 247.891 28.7812 252.453 28.7812C257.484 28.7812 261.547 30.2031 264.641 33.0469C267.766 35.8594 269.328 39.75 269.328 44.7188V78H265.953V44.7188ZM276.078 44.7188V78H272.703V44.7188C272.703 38.8125 270.812 34.125 267.031 30.6562C263.25 27.1562 258.391 25.4062 252.453 25.4062C246.953 25.4062 242.359 27.2344 238.672 30.8906C234.984 34.5469 233.141 39 233.141 44.25C233.141 47.4375 233.688 50.2969 234.781 52.8281C235.906 55.3594 237.422 57.3906 239.328 58.9219C241.234 60.4531 243.359 61.625 245.703 62.4375C248.078 63.2188 250.578 63.6094 253.203 63.6094C256.766 63.6094 260.156 62.7812 263.375 61.125V64.6875C260 66.0938 256.594 66.7969 253.156 66.7969C250.062 66.7969 247.125 66.3281 244.344 65.3906C241.562 64.4219 239.078 63.0312 236.891 61.2188C234.703 59.375 232.969 57 231.688 54.0938C230.406 51.1562 229.766 47.875 229.766 44.25C229.766 38.0938 231.938 32.8594 236.281 28.5469C240.656 24.2031 246.047 22.0312 252.453 22.0312C256.953 22.0312 260.984 22.9531 264.547 24.7969C268.109 26.6094 270.922 29.25 272.984 32.7188C275.047 36.1875 276.078 40.1875 276.078 44.7188ZM282.828 44.7188V78H279.453V44.7188C279.453 39.5625 278.266 35 275.891 31.0312C273.547 27.0312 270.328 23.9688 266.234 21.8438C262.141 19.7188 257.547 18.6562 252.453 18.6562C247.609 18.6562 243.188 19.8125 239.188 22.125C235.188 24.4062 232.047 27.5 229.766 31.4062C227.516 35.3125 226.391 39.5938 226.391 44.25C226.391 48.25 227.125 51.9062 228.594 55.2188C230.062 58.5 232.031 61.2031 234.5 63.3281C237 65.4531 239.828 67.1094 242.984 68.2969C246.172 69.4531 249.5 70.0312 252.969 70.0312C256.5 70.0312 259.969 69.2969 263.375 67.8281V71.25C259.812 72.5938 256.312 73.2656 252.875 73.2656C247.469 73.2656 242.5 72.0469 237.969 69.6094C233.438 67.1719 229.812 63.7188 227.094 59.25C224.375 54.7812 223.016 49.7812 223.016 44.25C223.016 40.3125 223.766 36.5625 225.266 33C226.797 29.4375 228.859 26.3594 231.453 23.7656C234.047 21.1719 237.172 19.1094 240.828 17.5781C244.484 16.0469 248.359 15.2812 252.453 15.2812C258.172 15.2812 263.328 16.5 267.922 18.9375C272.547 21.375 276.188 24.8438 278.844 29.3438C281.5 33.8438 282.828 38.9688 282.828 44.7188ZM289.578 44.7188V78H286.203V44.7188C286.203 38.3438 284.719 32.6562 281.75 27.6562C278.781 22.625 274.734 18.75 269.609 16.0312C264.484 13.2812 258.766 11.9062 252.453 11.9062C246.391 11.9062 240.844 13.3594 235.812 16.2656C230.781 19.1719 226.828 23.1094 223.953 28.0781C221.078 33.0156 219.641 38.4062 219.641 44.25C219.641 48.0938 220.25 51.75 221.469 55.2188C222.719 58.6562 224.406 61.6719 226.531 64.2656C228.688 66.8281 231.156 69.0469 233.938 70.9219C236.75 72.7969 239.766 74.2188 242.984 75.1875C246.234 76.1562 249.531 76.6406 252.875 76.6406C256.562 76.6406 260.062 75.9375 263.375 74.5312V78C259.906 79.2188 256.344 79.8281 252.688 79.8281C248.906 79.8281 245.219 79.2969 241.625 78.2344C238.062 77.1719 234.75 75.6094 231.688 73.5469C228.656 71.4531 225.984 69 223.672 66.1875C221.359 63.3438 219.547 60.0312 218.234 56.25C216.922 52.4688 216.266 48.4688 216.266 44.25C216.266 39.4062 217.172 34.7969 218.984 30.4219C220.828 26.0156 223.328 22.2188 226.484 19.0312C229.672 15.8125 233.516 13.2656 238.016 11.3906C242.547 9.48437 247.359 8.53125 252.453 8.53125C257.641 8.53125 262.516 9.40625 267.078 11.1562C271.641 12.9062 275.578 15.3438 278.891 18.4688C282.203 21.5625 284.812 25.375 286.719 29.9062C288.625 34.4375 289.578 39.375 289.578 44.7188ZM323.422 45.75H343.766C346.453 45.75 348.734 44.9062 350.609 43.2188C352.484 41.5312 353.422 39.1562 353.422 36.0938C353.422 33.8438 352.438 31.8281 350.469 30.0469C348.531 28.2656 346.297 27.375 343.766 27.375H314.797V78H311.422V24H343.766C347.234 24 350.266 25.2188 352.859 27.6562C355.484 30.0938 356.797 32.9062 356.797 36.0938C356.797 40.0625 355.531 43.2344 353 45.6094C350.469 47.9531 347.391 49.125 343.766 49.125H323.422V45.75ZM323.422 52.5H343.766C348.266 52.5 352.125 50.9688 355.344 47.9062C358.562 44.8438 360.172 40.9062 360.172 36.0938C360.172 32 358.531 28.4062 355.25 25.3125C351.969 22.1875 348.141 20.625 343.766 20.625H308.047V78H304.672V17.25H343.766C349.078 17.25 353.703 19.1406 357.641 22.9219C361.578 26.6719 363.547 31.0625 363.547 36.0938C363.547 41.7188 361.594 46.4219 357.688 50.2031C353.812 53.9844 349.172 55.875 343.766 55.875H323.422V52.5ZM323.422 59.25H343.766C347.922 59.25 351.766 58.25 355.297 56.25C358.828 54.25 361.641 51.4688 363.734 47.9062C365.859 44.3438 366.922 40.4062 366.922 36.0938C366.922 32.1875 365.875 28.5312 363.781 25.125C361.688 21.6875 358.844 18.9531 355.25 16.9219C351.688 14.8906 347.859 13.875 343.766 13.875H301.297V78H297.922V10.5H343.766C347.297 10.5 350.688 11.2031 353.938 12.6094C357.219 13.9844 360.047 15.8281 362.422 18.1406C364.797 20.4219 366.703 23.1406 368.141 26.2969C369.578 29.4531 370.297 32.7188 370.297 36.0938C370.297 41.5625 369.047 46.3438 366.547 50.4375C364.047 54.5 360.688 57.5938 356.469 59.7188L363.547 78H359.938L353.234 61.0781C352.391 61.3594 351.406 61.6406 350.281 61.9219L356.609 78H353L346.812 62.4844C345.844 62.5781 344.828 62.625 343.766 62.625L349.719 78H346.156L340.25 62.625H337.203L342.875 78H339.312L333.594 62.625H323.422V59.25ZM321.547 78H318.172V30.75H343.766C345.516 30.75 347 31.2812 348.219 32.3438C349.438 33.375 350.047 34.625 350.047 36.0938C350.047 40.2812 347.953 42.375 343.766 42.375H323.422V39H343.766C345.703 39 346.672 38.0312 346.672 36.0938C346.672 35.5625 346.375 35.1094 345.781 34.7344C345.219 34.3281 344.547 34.125 343.766 34.125H321.547V78ZM194.188 146.062C190.562 149.688 188.75 154.062 188.75 159.188C188.75 164.312 190.562 168.688 194.188 172.312C197.812 175.938 202.188 177.75 207.312 177.75C212.438 177.75 216.812 175.938 220.438 172.312C224.062 168.688 225.875 164.312 225.875 159.188C225.875 154.062 224.062 149.688 220.438 146.062C216.812 142.438 212.438 140.625 207.312 140.625C202.188 140.625 197.812 142.438 194.188 146.062ZM187.109 167.719C185.953 165 185.375 162.156 185.375 159.188C185.375 156.219 185.953 153.391 187.109 150.703C188.266 147.984 189.828 145.641 191.797 143.672C193.766 141.703 196.094 140.141 198.781 138.984C201.5 137.828 204.344 137.25 207.312 137.25C210.281 137.25 213.109 137.828 215.797 138.984C218.516 140.141 220.859 141.703 222.828 143.672C224.797 145.641 226.359 147.984 227.516 150.703C228.672 153.391 229.25 156.219 229.25 159.188C229.25 162.156 228.672 165 227.516 167.719C226.359 170.406 224.797 172.734 222.828 174.703C220.859 176.672 218.516 178.234 215.797 179.391C213.109 180.547 210.281 181.125 207.312 181.125C204.344 181.125 201.5 180.547 198.781 179.391C196.094 178.234 193.766 176.672 191.797 174.703C189.828 172.734 188.266 170.406 187.109 167.719ZM185.375 146.484C183.125 150.359 182 154.594 182 159.188C182 163.781 183.125 168.016 185.375 171.891C187.656 175.766 190.734 178.844 194.609 181.125C198.484 183.375 202.719 184.5 207.312 184.5C211.906 184.5 216.141 183.375 220.016 181.125C223.891 178.844 226.953 175.766 229.203 171.891C231.484 168.016 232.625 163.781 232.625 159.188C232.625 154.594 231.484 150.359 229.203 146.484C226.953 142.609 223.891 139.547 220.016 137.297C216.141 135.016 211.906 133.875 207.312 133.875C202.719 133.875 198.484 135.016 194.609 137.297C190.734 139.547 187.656 142.609 185.375 146.484ZM182.469 173.578C179.906 169.172 178.625 164.375 178.625 159.188C178.625 154 179.906 149.203 182.469 144.797C185.031 140.391 188.516 136.906 192.922 134.344C197.328 131.781 202.125 130.5 207.312 130.5C212.5 130.5 217.297 131.781 221.703 134.344C226.109 136.906 229.594 140.391 232.156 144.797C234.719 149.203 236 154 236 159.188C236 164.375 234.719 169.172 232.156 173.578C229.594 177.984 226.109 181.469 221.703 184.031C217.297 186.594 212.5 187.875 207.312 187.875C202.125 187.875 197.328 186.594 192.922 184.031C188.516 181.469 185.031 177.984 182.469 173.578ZM177.781 146.719C176.094 150.688 175.25 154.844 175.25 159.188C175.25 163.531 176.094 167.688 177.781 171.656C179.469 175.625 181.734 179.047 184.578 181.922C187.453 184.766 190.875 187.031 194.844 188.719C198.812 190.406 202.969 191.25 207.312 191.25C211.656 191.25 215.812 190.406 219.781 188.719C223.75 187.031 227.156 184.766 230 181.922C232.875 179.047 235.156 175.625 236.844 171.656C238.531 167.688 239.375 163.531 239.375 159.188C239.375 154.844 238.531 150.688 236.844 146.719C235.156 142.75 232.875 139.344 230 136.5C227.156 133.625 223.75 131.344 219.781 129.656C215.812 127.969 211.656 127.125 207.312 127.125C202.969 127.125 198.812 127.969 194.844 129.656C190.875 131.344 187.453 133.625 184.578 136.5C181.734 139.344 179.469 142.75 177.781 146.719ZM176.609 176.953C173.453 171.516 171.875 165.594 171.875 159.188C171.875 152.781 173.453 146.859 176.609 141.422C179.797 135.984 184.109 131.688 189.547 128.531C194.984 125.344 200.906 123.75 207.312 123.75C213.719 123.75 219.641 125.344 225.078 128.531C230.516 131.688 234.812 135.984 237.969 141.422C241.156 146.859 242.75 152.781 242.75 159.188C242.75 165.594 241.156 171.516 237.969 176.953C234.812 182.391 230.516 186.703 225.078 189.891C219.641 193.047 213.719 194.625 207.312 194.625C200.906 194.625 194.984 193.047 189.547 189.891C184.109 186.703 179.797 182.391 176.609 176.953ZM171.547 144.141C169.516 148.922 168.5 153.938 168.5 159.188C168.5 164.438 169.516 169.469 171.547 174.281C173.609 179.062 176.375 183.188 179.844 186.656C183.312 190.125 187.438 192.891 192.219 194.953C197.031 196.984 202.062 198 207.312 198C212.562 198 217.578 196.984 222.359 194.953C227.172 192.891 231.312 190.125 234.781 186.656C238.25 183.188 241 179.062 243.031 174.281C245.094 169.469 246.125 164.438 246.125 159.188C246.125 153.938 245.094 148.922 243.031 144.141C241 139.328 238.25 135.188 234.781 131.719C231.312 128.25 227.172 125.5 222.359 123.469C217.578 121.406 212.562 120.375 207.312 120.375C202.062 120.375 197.031 121.406 192.219 123.469C187.438 125.5 183.312 128.25 179.844 131.719C176.375 135.188 173.609 139.328 171.547 144.141ZM168.453 175.594C166.234 170.375 165.125 164.906 165.125 159.188C165.125 153.469 166.234 148.016 168.453 142.828C170.703 137.609 173.703 133.125 177.453 129.375C181.234 125.594 185.719 122.594 190.906 120.375C196.125 118.125 201.594 117 207.312 117C213.031 117 218.484 118.125 223.672 120.375C228.891 122.594 233.375 125.594 237.125 129.375C240.906 133.125 243.906 137.609 246.125 142.828C248.375 148.016 249.5 153.469 249.5 159.188C249.5 164.906 248.375 170.375 246.125 175.594C243.906 180.781 240.906 185.266 237.125 189.047C233.375 192.797 228.891 195.781 223.672 198C218.484 200.25 213.031 201.375 207.312 201.375C201.594 201.375 196.125 200.25 190.906 198C185.719 195.781 181.234 192.797 177.453 189.047C173.703 185.266 170.703 180.781 168.453 175.594ZM282.688 166.219H296.984C299.797 166.219 302.188 165.375 304.156 163.688C306.125 162 307.109 159.625 307.109 156.562C307.109 154.188 306.078 152.062 304.016 150.188C301.953 148.312 299.609 147.375 296.984 147.375H273.359V198H269.984V144H296.984C300.578 144 303.719 145.266 306.406 147.797C309.125 150.328 310.484 153.25 310.484 156.562C310.484 160.531 309.172 163.703 306.547 166.078C303.922 168.422 300.734 169.594 296.984 169.594H282.688V166.219ZM282.688 172.969H296.984C301.609 172.969 305.578 171.438 308.891 168.375C312.203 165.312 313.859 161.375 313.859 156.562C313.859 152.344 312.172 148.641 308.797 145.453C305.422 142.234 301.484 140.625 296.984 140.625H266.609V198H263.234V137.25H296.984C302.422 137.25 307.156 139.188 311.188 143.062C315.219 146.906 317.234 151.406 317.234 156.562C317.234 162.188 315.234 166.891 311.234 170.672C307.266 174.453 302.516 176.344 296.984 176.344H282.688V172.969ZM282.688 179.719H296.984C301.203 179.719 305.109 178.719 308.703 176.719C312.328 174.719 315.219 171.938 317.375 168.375C319.531 164.812 320.609 160.875 320.609 156.562C320.609 152.594 319.531 148.859 317.375 145.359C315.25 141.859 312.359 139.078 308.703 137.016C305.078 134.922 301.172 133.875 296.984 133.875H259.859V198H256.484V130.5H296.984C300.547 130.5 303.984 131.203 307.297 132.609C310.641 134.016 313.531 135.906 315.969 138.281C318.406 140.625 320.344 143.406 321.781 146.625C323.25 149.812 323.984 153.125 323.984 156.562C323.984 160.594 323.266 164.297 321.828 167.672C320.391 171.047 318.438 173.859 315.969 176.109C313.5 178.328 310.625 180.047 307.344 181.266C304.094 182.484 300.641 183.094 296.984 183.094H282.688V179.719ZM280.109 198H276.734V150.75H296.984C298.828 150.75 300.406 151.328 301.719 152.484C303.062 153.609 303.734 154.969 303.734 156.562C303.734 160.75 301.484 162.844 296.984 162.844H282.688V159.469H296.984C299.234 159.469 300.359 158.5 300.359 156.562C300.359 155.875 300.031 155.297 299.375 154.828C298.719 154.359 297.922 154.125 296.984 154.125H280.109V198ZM357.781 166.219H372.078C374.891 166.219 377.281 165.375 379.25 163.688C381.219 162 382.203 159.625 382.203 156.562C382.203 154.188 381.172 152.062 379.109 150.188C377.047 148.312 374.703 147.375 372.078 147.375H348.453V198H345.078V144H372.078C375.672 144 378.812 145.266 381.5 147.797C384.219 150.328 385.578 153.25 385.578 156.562C385.578 160.531 384.266 163.703 381.641 166.078C379.016 168.422 375.828 169.594 372.078 169.594H357.781V166.219ZM357.781 172.969H372.078C376.703 172.969 380.672 171.438 383.984 168.375C387.297 165.312 388.953 161.375 388.953 156.562C388.953 152.344 387.266 148.641 383.891 145.453C380.516 142.234 376.578 140.625 372.078 140.625H341.703V198H338.328V137.25H372.078C377.516 137.25 382.25 139.188 386.281 143.062C390.312 146.906 392.328 151.406 392.328 156.562C392.328 162.188 390.328 166.891 386.328 170.672C382.359 174.453 377.609 176.344 372.078 176.344H357.781V172.969ZM357.781 179.719H372.078C376.297 179.719 380.203 178.719 383.797 176.719C387.422 174.719 390.312 171.938 392.469 168.375C394.625 164.812 395.703 160.875 395.703 156.562C395.703 152.594 394.625 148.859 392.469 145.359C390.344 141.859 387.453 139.078 383.797 137.016C380.172 134.922 376.266 133.875 372.078 133.875H334.953V198H331.578V130.5H372.078C375.641 130.5 379.078 131.203 382.391 132.609C385.734 134.016 388.625 135.906 391.062 138.281C393.5 140.625 395.438 143.406 396.875 146.625C398.344 149.812 399.078 153.125 399.078 156.562C399.078 160.594 398.359 164.297 396.922 167.672C395.484 171.047 393.531 173.859 391.062 176.109C388.594 178.328 385.719 180.047 382.438 181.266C379.188 182.484 375.734 183.094 372.078 183.094H357.781V179.719ZM355.203 198H351.828V150.75H372.078C373.922 150.75 375.5 151.328 376.812 152.484C378.156 153.609 378.828 154.969 378.828 156.562C378.828 160.75 376.578 162.844 372.078 162.844H357.781V159.469H372.078C374.328 159.469 375.453 158.5 375.453 156.562C375.453 155.875 375.125 155.297 374.469 154.828C373.812 154.359 373.016 154.125 372.078 154.125H355.203V198ZM432.453 154.734C429.828 157.359 428.516 160.531 428.516 164.25C428.516 167.969 429.828 171.156 432.453 173.812C435.109 176.438 438.297 177.75 442.016 177.75C445.734 177.75 448.906 176.438 451.531 173.812C454.188 171.156 455.516 167.969 455.516 164.25C455.516 160.531 454.188 157.359 451.531 154.734C448.906 152.078 445.734 150.75 442.016 150.75C438.297 150.75 435.109 152.078 432.453 154.734ZM430.062 176.203C426.781 172.891 425.141 168.906 425.141 164.25C425.141 159.594 426.781 155.625 430.062 152.344C433.375 149.031 437.359 147.375 442.016 147.375C446.672 147.375 450.641 149.031 453.922 152.344C457.234 155.625 458.891 159.594 458.891 164.25C458.891 168.906 457.234 172.891 453.922 176.203C450.641 179.484 446.672 181.125 442.016 181.125C437.359 181.125 433.375 179.484 430.062 176.203ZM427.672 149.953C423.734 153.922 421.766 158.688 421.766 164.25C421.766 169.812 423.734 174.578 427.672 178.547C431.641 182.516 436.422 184.5 442.016 184.5C447.609 184.5 452.375 182.516 456.312 178.547C460.281 174.578 462.266 169.812 462.266 164.25C462.266 158.688 460.281 153.922 456.312 149.953C452.375 145.984 447.609 144 442.016 144C436.422 144 431.641 145.984 427.672 149.953ZM421.531 176.109C419.438 172.484 418.391 168.531 418.391 164.25C418.391 159.969 419.438 156.016 421.531 152.391C423.656 148.766 426.531 145.906 430.156 143.812C433.781 141.688 437.734 140.625 442.016 140.625C446.297 140.625 450.25 141.688 453.875 143.812C457.5 145.906 460.359 148.766 462.453 152.391C464.578 156.016 465.641 159.969 465.641 164.25C465.641 168.531 464.578 172.484 462.453 176.109C460.359 179.734 457.5 182.609 453.875 184.734C450.25 186.828 446.297 187.875 442.016 187.875C437.734 187.875 433.781 186.828 430.156 184.734C426.531 182.609 423.656 179.734 421.531 176.109ZM417.125 153.797C415.719 157.109 415.016 160.594 415.016 164.25C415.016 167.906 415.719 171.406 417.125 174.75C418.562 178.062 420.484 180.938 422.891 183.375C425.328 185.781 428.203 187.703 431.516 189.141C434.859 190.547 438.359 191.25 442.016 191.25C445.672 191.25 449.156 190.547 452.469 189.141C455.812 187.703 458.688 185.781 461.094 183.375C463.531 180.938 465.453 178.062 466.859 174.75C468.297 171.406 469.016 167.906 469.016 164.25C469.016 160.594 468.297 157.109 466.859 153.797C465.453 150.453 463.531 147.578 461.094 145.172C458.688 142.734 455.812 140.812 452.469 139.406C449.156 137.969 445.672 137.25 442.016 137.25C438.359 137.25 434.859 137.969 431.516 139.406C428.203 140.812 425.328 142.734 422.891 145.172C420.484 147.578 418.562 150.453 417.125 153.797ZM414.031 176.062C412.438 172.312 411.641 168.375 411.641 164.25C411.641 160.125 412.438 156.188 414.031 152.438C415.656 148.688 417.812 145.469 420.5 142.781C423.219 140.062 426.453 137.906 430.203 136.312C433.953 134.688 437.891 133.875 442.016 133.875C446.141 133.875 450.078 134.688 453.828 136.312C457.578 137.906 460.797 140.062 463.484 142.781C466.203 145.469 468.359 148.688 469.953 152.438C471.578 156.188 472.391 160.125 472.391 164.25C472.391 168.375 471.578 172.312 469.953 176.062C468.359 179.812 466.203 183.047 463.484 185.766C460.797 188.453 457.578 190.609 453.828 192.234C450.078 193.828 446.141 194.625 442.016 194.625C437.891 194.625 433.953 193.828 430.203 192.234C426.453 190.609 423.219 188.453 420.5 185.766C417.812 183.047 415.656 179.812 414.031 176.062ZM410.938 151.172C409.156 155.328 408.266 159.688 408.266 164.25C408.266 168.812 409.156 173.188 410.938 177.375C412.719 181.531 415.109 185.125 418.109 188.156C421.141 191.156 424.734 193.547 428.891 195.328C433.078 197.109 437.453 198 442.016 198C446.578 198 450.938 197.109 455.094 195.328C459.281 193.547 462.875 191.156 465.875 188.156C468.906 185.125 471.312 181.531 473.094 177.375C474.875 173.188 475.766 168.812 475.766 164.25C475.766 159.688 474.875 155.328 473.094 151.172C471.312 146.984 468.906 143.391 465.875 140.391C462.875 137.359 459.281 134.953 455.094 133.172C450.938 131.391 446.578 130.5 442.016 130.5C437.453 130.5 433.078 131.391 428.891 133.172C424.734 134.953 421.141 137.359 418.109 140.391C415.109 143.391 412.719 146.984 410.938 151.172ZM407.844 178.688C405.875 174.094 404.891 169.281 404.891 164.25C404.891 159.219 405.875 154.422 407.844 149.859C409.812 145.266 412.453 141.312 415.766 138C419.078 134.688 423.016 132.047 427.578 130.078C432.172 128.109 436.984 127.125 442.016 127.125C447.047 127.125 451.844 128.109 456.406 130.078C461 132.047 464.953 134.688 468.266 138C471.578 141.312 474.219 145.266 476.188 149.859C478.156 154.422 479.141 159.219 479.141 164.25C479.141 169.281 478.156 174.094 476.188 178.688C474.219 183.25 471.578 187.188 468.266 190.5C464.953 193.812 461 196.453 456.406 198.422C451.844 200.391 447.047 201.375 442.016 201.375C436.984 201.375 432.172 200.391 427.578 198.422C423.016 196.453 419.078 193.812 415.766 190.5C412.453 187.188 409.812 183.25 407.844 178.688ZM517.766 165.891H512.422C505.859 165.891 500.812 164.562 497.281 161.906C493.75 159.219 491.984 155.531 491.984 150.844C491.984 146.469 494.062 142.828 498.219 139.922C502.375 136.984 508.203 135.516 515.703 135.516C520.703 135.516 525.359 136.203 529.672 137.578C534.016 138.953 537.625 140.891 540.5 143.391L537.875 145.5C535.312 143.406 532.094 141.781 528.219 140.625C524.344 139.469 520.172 138.891 515.703 138.891C509.109 138.891 504.062 140.016 500.562 142.266C497.094 144.516 495.359 147.375 495.359 150.844C495.359 154.594 496.781 157.484 499.625 159.516C502.5 161.516 506.766 162.516 512.422 162.516H517.578C524.234 162.516 529.328 163.859 532.859 166.547C536.422 169.203 538.203 172.875 538.203 177.562C538.203 181.938 536.125 185.594 531.969 188.531C527.812 191.438 521.984 192.891 514.484 192.891C509.484 192.891 504.812 192.203 500.469 190.828C496.156 189.453 492.562 187.516 489.688 185.016L492.312 182.906C494.875 185 498.094 186.625 501.969 187.781C505.844 188.938 510.016 189.516 514.484 189.516C521.078 189.516 526.109 188.391 529.578 186.141C533.078 183.891 534.828 181.031 534.828 177.562C534.828 173.812 533.391 170.938 530.516 168.938C527.672 166.906 523.422 165.891 517.766 165.891ZM517.766 172.641H512.422C503.734 172.641 497.031 170.672 492.312 166.734C487.594 162.766 485.234 157.469 485.234 150.844C485.234 147.812 485.906 144.969 487.25 142.312C488.594 139.656 490.516 137.328 493.016 135.328C495.547 133.297 498.766 131.703 502.672 130.547C506.578 129.359 510.922 128.766 515.703 128.766C521.734 128.766 527.375 129.688 532.625 131.531C537.875 133.344 542.25 135.891 545.75 139.172L543.031 141.188C539.844 138.312 535.859 136.094 531.078 134.531C526.297 132.938 521.172 132.141 515.703 132.141C507.266 132.141 500.641 133.922 495.828 137.484C491.016 141.047 488.609 145.5 488.609 150.844C488.609 156.5 490.672 160.984 494.797 164.297C498.922 167.609 504.797 169.266 512.422 169.266H517.578C526.828 169.266 531.453 172.031 531.453 177.562C531.453 180.062 530.031 182.125 527.188 183.75C524.375 185.344 520.141 186.141 514.484 186.141C510.516 186.141 506.828 185.688 503.422 184.781C500.016 183.844 497.203 182.516 494.984 180.797L497.656 178.734C501.562 181.422 507.172 182.766 514.484 182.766C519.172 182.766 522.609 182.281 524.797 181.312C526.984 180.344 528.078 179.094 528.078 177.562C528.078 175.781 527.312 174.516 525.781 173.766C524.25 173.016 521.578 172.641 517.766 172.641ZM517.766 159.141H512.422C503.297 159.141 498.734 156.375 498.734 150.844C498.734 148.344 500.141 146.297 502.953 144.703C505.797 143.078 510.047 142.266 515.703 142.266C519.672 142.266 523.359 142.734 526.766 143.672C530.172 144.578 532.984 145.891 535.203 147.609L532.531 149.672C528.625 146.984 523.016 145.641 515.703 145.641C511.016 145.641 507.578 146.125 505.391 147.094C503.203 148.062 502.109 149.312 502.109 150.844C502.109 152.625 502.875 153.891 504.406 154.641C505.938 155.391 508.609 155.766 512.422 155.766H517.766C526.453 155.766 533.156 157.75 537.875 161.719C542.594 165.656 544.953 170.938 544.953 177.562C544.953 180.594 544.281 183.438 542.938 186.094C541.594 188.75 539.656 191.094 537.125 193.125C534.625 195.125 531.422 196.719 527.516 197.906C523.609 199.062 519.266 199.641 514.484 199.641C508.453 199.641 502.812 198.734 497.562 196.922C492.312 195.078 487.938 192.516 484.438 189.234L487.156 187.219C490.344 190.094 494.328 192.328 499.109 193.922C503.891 195.484 509.016 196.266 514.484 196.266C522.922 196.266 529.547 194.484 534.359 190.922C539.172 187.359 541.578 182.906 541.578 177.562C541.578 171.906 539.516 167.422 535.391 164.109C531.266 160.797 525.391 159.141 517.766 159.141ZM572.609 130.5H575.984V198H572.609V130.5ZM565.859 130.5H569.234V198H565.859V130.5ZM559.109 130.5H562.484V198H559.109V130.5ZM552.359 130.5H555.734V198H552.359V130.5ZM596.75 149.203H600.125V198H596.75V149.203ZM583.25 133.875V130.5H633.875V133.875H583.25ZM583.25 140.625V137.25H633.875V140.625H583.25ZM583.25 147.375V144H633.875V147.375H583.25ZM617 149.203H620.375V198H617V149.203ZM610.25 149.203H613.625V198H610.25V149.203ZM603.5 149.203H606.875V198H603.5V149.203ZM658.203 198H654.828V130.5H658.203V198ZM651.453 198H648.078V130.5H651.453V198ZM644.703 198H641.328V130.5H644.703V198ZM664.953 181.125H697.25V184.5H664.953V187.875H697.25V191.25H664.953V194.625H697.25V198H661.578V130.5H697.25V133.875H664.953V137.25H697.25V140.625H664.953V144H697.25V147.375H664.953V155.766H695.375V159.141H664.953V162.516H695.375V165.891H664.953V169.266H695.375V172.641H664.953V181.125ZM736.391 165.891H731.047C724.484 165.891 719.438 164.562 715.906 161.906C712.375 159.219 710.609 155.531 710.609 150.844C710.609 146.469 712.688 142.828 716.844 139.922C721 136.984 726.828 135.516 734.328 135.516C739.328 135.516 743.984 136.203 748.297 137.578C752.641 138.953 756.25 140.891 759.125 143.391L756.5 145.5C753.938 143.406 750.719 141.781 746.844 140.625C742.969 139.469 738.797 138.891 734.328 138.891C727.734 138.891 722.688 140.016 719.188 142.266C715.719 144.516 713.984 147.375 713.984 150.844C713.984 154.594 715.406 157.484 718.25 159.516C721.125 161.516 725.391 162.516 731.047 162.516H736.203C742.859 162.516 747.953 163.859 751.484 166.547C755.047 169.203 756.828 172.875 756.828 177.562C756.828 181.938 754.75 185.594 750.594 188.531C746.438 191.438 740.609 192.891 733.109 192.891C728.109 192.891 723.438 192.203 719.094 190.828C714.781 189.453 711.188 187.516 708.312 185.016L710.938 182.906C713.5 185 716.719 186.625 720.594 187.781C724.469 188.938 728.641 189.516 733.109 189.516C739.703 189.516 744.734 188.391 748.203 186.141C751.703 183.891 753.453 181.031 753.453 177.562C753.453 173.812 752.016 170.938 749.141 168.938C746.297 166.906 742.047 165.891 736.391 165.891ZM736.391 172.641H731.047C722.359 172.641 715.656 170.672 710.938 166.734C706.219 162.766 703.859 157.469 703.859 150.844C703.859 147.812 704.531 144.969 705.875 142.312C707.219 139.656 709.141 137.328 711.641 135.328C714.172 133.297 717.391 131.703 721.297 130.547C725.203 129.359 729.547 128.766 734.328 128.766C740.359 128.766 746 129.688 751.25 131.531C756.5 133.344 760.875 135.891 764.375 139.172L761.656 141.188C758.469 138.312 754.484 136.094 749.703 134.531C744.922 132.938 739.797 132.141 734.328 132.141C725.891 132.141 719.266 133.922 714.453 137.484C709.641 141.047 707.234 145.5 707.234 150.844C707.234 156.5 709.297 160.984 713.422 164.297C717.547 167.609 723.422 169.266 731.047 169.266H736.203C745.453 169.266 750.078 172.031 750.078 177.562C750.078 180.062 748.656 182.125 745.812 183.75C743 185.344 738.766 186.141 733.109 186.141C729.141 186.141 725.453 185.688 722.047 184.781C718.641 183.844 715.828 182.516 713.609 180.797L716.281 178.734C720.188 181.422 725.797 182.766 733.109 182.766C737.797 182.766 741.234 182.281 743.422 181.312C745.609 180.344 746.703 179.094 746.703 177.562C746.703 175.781 745.938 174.516 744.406 173.766C742.875 173.016 740.203 172.641 736.391 172.641ZM736.391 159.141H731.047C721.922 159.141 717.359 156.375 717.359 150.844C717.359 148.344 718.766 146.297 721.578 144.703C724.422 143.078 728.672 142.266 734.328 142.266C738.297 142.266 741.984 142.734 745.391 143.672C748.797 144.578 751.609 145.891 753.828 147.609L751.156 149.672C747.25 146.984 741.641 145.641 734.328 145.641C729.641 145.641 726.203 146.125 724.016 147.094C721.828 148.062 720.734 149.312 720.734 150.844C720.734 152.625 721.5 153.891 723.031 154.641C724.562 155.391 727.234 155.766 731.047 155.766H736.391C745.078 155.766 751.781 157.75 756.5 161.719C761.219 165.656 763.578 170.938 763.578 177.562C763.578 180.594 762.906 183.438 761.562 186.094C760.219 188.75 758.281 191.094 755.75 193.125C753.25 195.125 750.047 196.719 746.141 197.906C742.234 199.062 737.891 199.641 733.109 199.641C727.078 199.641 721.438 198.734 716.188 196.922C710.938 195.078 706.562 192.516 703.062 189.234L705.781 187.219C708.969 190.094 712.953 192.328 717.734 193.922C722.516 195.484 727.641 196.266 733.109 196.266C741.547 196.266 748.172 194.484 752.984 190.922C757.797 187.359 760.203 182.906 760.203 177.562C760.203 171.906 758.141 167.422 754.016 164.109C749.891 160.797 744.016 159.141 736.391 159.141Z" fill="url(#paint0_linear_19_6)"/>
<defs>
<linearGradient id="paint0_linear_19_6" x1="416" y1="-18" x2="416" y2="242" gradientUnits="userSpaceOnUse">
<stop stop-color="#FF0000"/>
<stop offset="1" stop-color="#00FFFF"/>
</linearGradient>
</defs>
</svg>
