<svg width="156" height="398" viewBox="0 0 156 398" fill="none" xmlns="http://www.w3.org/2000/svg">
<path d="M73.1562 0.319692C63.9062 1.65676 55.375 7.0672 50.2187 14.8719C46.0312 21.2152 44.3125 28.0871 44.9062 36.0473C45.8437 48.0498 54.1562 59.1505 65.5 63.5971C69.9687 65.3384 72.125 65.7115 77.6562 65.7426C82.9062 65.7426 84.1875 65.556 88.2812 64.2811C96.5 61.7003 104.375 54.6729 107.969 46.806C111.844 38.3172 112 28.7401 108.375 20.1891C106.094 14.7786 101.156 8.74631 96.5625 5.73014C89.5625 1.15924 81.0312 -0.830806 73.1562 0.319692Z" fill="url(#paint0_linear_84_222)"/>
<path d="M37.6562 73.5162C37.4062 73.5784 36.125 73.796 34.8438 73.9826C31.5312 74.5112 26.5625 76.1903 23.25 77.9005C11.25 84.0572 2.96875 95.3756 0.59375 108.808C0.03125 111.918 0 114.872 0 166.178V220.282L0.6875 222.49C2.90625 229.424 10.4062 233.529 17.75 231.818C22.7812 230.637 26.0938 227.807 28 223.081L28.75 221.215L28.8438 172.925L28.9062 124.667H32.3438H35.7812L35.8438 253.771L35.9375 382.907L36.5938 384.804C38.4375 390.058 41.4062 393.634 45.8125 395.78C51.75 398.672 58.0625 398.672 64.125 395.78C68.875 393.51 72.5312 388.939 73.9375 383.529C74.25 382.285 74.375 366.862 74.4375 306.663L74.5312 231.321H77.8125H81.0938V306.165C81.0938 370.842 81.1562 381.352 81.5625 383.218C83.4688 392.328 92.2188 398.578 102.031 397.863C110.156 397.304 116.312 392.733 118.844 385.394L119.688 382.907L119.781 253.771L119.844 124.636L123.219 124.729L126.562 124.822L126.719 173.174C126.844 207.409 126.969 221.806 127.219 222.459C129.562 228.802 134.469 232.254 141.188 232.254C148.5 232.254 154.094 227.341 155.156 219.971C155.406 218.168 155.469 203.149 155.406 164.934C155.312 115.556 155.25 112.198 154.719 109.43C152.969 100.32 149 92.5771 142.844 86.2028C137 80.1393 130.562 76.4702 122.031 74.3557L118.75 73.5473L78.4375 73.4851C56.2812 73.454 37.9062 73.454 37.6562 73.5162Z" fill="url(#paint1_linear_84_222)"/>
<defs>
<linearGradient id="paint0_linear_84_222" x1="77.8903" y1="6.10352e-05" x2="77.8903" y2="65.7426" gradientUnits="userSpaceOnUse">
<stop stop-color="#D0312D"/>
<stop offset="1" stop-color="#53110F"/>
</linearGradient>
<linearGradient id="paint1_linear_84_222" x1="77.7144" y1="397.949" x2="77.7144" y2="73.4647" gradientUnits="userSpaceOnUse">
<stop stop-color="#D0312D"/>
<stop offset="1" stop-color="#53110F"/>
</linearGradient>
</defs>
</svg>
