<svg width="50" height="50" viewBox="0 0 50 50" fill="none" xmlns="http://www.w3.org/2000/svg">
<path d="M25 0C11.215 0 0 11.215 0 25C0 38.785 11.215 50 25 50C38.785 50 50 38.785 50 25C50 11.215 38.785 0 25 0ZM31.1524 35.5142C32.04 36.4017 32.04 37.8408 31.1524 38.7283C30.7088 39.172 30.1271 39.3939 29.5455 39.3939C28.9638 39.3939 28.3821 39.1721 27.9385 38.7282L15.8173 26.6073C15.3911 26.1811 15.1515 25.603 15.1515 25.0003C15.1515 24.3976 15.3909 23.8194 15.8173 23.3932L27.9385 11.2717C28.8259 10.3841 30.265 10.3841 31.1526 11.2717C32.0402 12.1591 32.0402 13.5982 31.1526 14.4858L20.6385 25.0003L31.1524 35.5142Z" fill="url(#paint0_linear_147_30)"/>
<defs>
<linearGradient id="paint0_linear_147_30" x1="0" y1="25" x2="50" y2="25" gradientUnits="userSpaceOnUse">
<stop stop-color="#D0312D"/>
<stop offset="1" stop-color="#6A1917"/>
</linearGradient>
</defs>
</svg>
