<svg width="50" height="50" viewBox="0 0 50 50" fill="none" xmlns="http://www.w3.org/2000/svg">
<path d="M25 0C38.785 0 50 11.215 50 25C50 38.785 38.785 50 25 50C11.215 50 -1.49012e-06 38.785 -1.49012e-06 25C-1.49012e-06 11.215 11.215 0 25 0ZM18.8476 35.5142C17.96 36.4017 17.96 37.8408 18.8476 38.7283C19.2912 39.172 19.8729 39.3939 20.4545 39.3939C21.0362 39.3939 21.6179 39.1721 22.0615 38.7282L34.1827 26.6073C34.6089 26.1811 34.8485 25.603 34.8485 25.0003C34.8485 24.3976 34.6091 23.8194 34.1827 23.3932L22.0615 11.2717C21.1741 10.3841 19.735 10.3841 18.8474 11.2717C17.9598 12.1591 17.9598 13.5982 18.8474 14.4858L29.3615 25.0003L18.8476 35.5142Z" fill="url(#paint0_linear_147_32)"/>
<defs>
<linearGradient id="paint0_linear_147_32" x1="50" y1="25" x2="0" y2="25" gradientUnits="userSpaceOnUse">
<stop stop-color="#D0312D"/>
<stop offset="1" stop-color="#6A1917"/>
</linearGradient>
</defs>
</svg>
