<svg width="351" height="328" viewBox="0 0 351 328" fill="none" xmlns="http://www.w3.org/2000/svg">
<g clip-path="url(#clip0_23_32)">
<path d="M289.613 236.699C284.872 240.575 277.879 239.871 274 235.146L248.615 203.996L228.152 235.784C227.411 236.982 226.454 237.924 225.409 238.718C221.364 244.495 215.399 248.981 208.002 250.829C204.794 251.607 201.61 251.744 198.495 251.514C197.757 251.738 197.063 252.085 196.251 252.178L140.238 256.865C137.099 257.11 134.199 256.012 132.015 254.107C129.283 252.561 127.183 249.961 126.573 246.653L116.361 191.34C115.258 185.325 119.239 179.535 125.276 178.403C131.275 177.298 137.078 181.298 138.194 187.332L146.821 234.041L172.328 231.924C171.921 230.854 171.453 229.839 171.168 228.726L152.944 155.497C152.686 154.422 152.638 153.371 152.513 152.289L126.833 81.8227L67.6988 48.6556C61.5686 41.9471 61.9718 31.5887 68.6166 25.4463C75.2962 19.2941 85.6866 19.7034 91.813 26.3451L152.199 60.925C153.904 62.7384 154.982 64.8951 155.681 67.1286C156.33 68.1455 157.125 69.0081 157.544 70.1959L172.854 112.209L219.284 85.784L185.729 29.4776C181.105 21.7167 183.646 11.6002 191.435 6.99914C199.218 2.34711 209.297 4.91307 213.946 12.7119L255.825 82.9586C257.132 85.126 257.714 87.453 257.958 89.8148C258.126 91.1037 257.886 92.3643 257.741 93.6432C257.62 94.2816 257.749 94.9017 257.589 95.483C256.606 99.86 254.003 103.796 249.816 106.157L207.091 130.493C209.26 133.519 210.938 136.948 211.893 140.785L225.875 196.883L237.375 178.023C238.038 176.28 238.982 174.625 240.541 173.384C241.952 172.231 243.593 171.601 245.279 171.261C245.454 171.211 245.648 171.232 245.849 171.22C246.905 171.058 247.974 170.914 249.021 171.064C250.271 171.187 251.485 171.583 252.679 172.175C252.708 172.197 252.724 172.2 252.724 172.2C253.044 172.344 253.391 172.344 253.699 172.551C255.342 173.559 256.483 174.951 257.395 176.497L293.752 221.579C297.624 226.336 294.37 232.827 289.613 236.699Z" fill="url(#paint0_linear_23_32)"/>
<path d="M229.749 252.477C246.539 255.677 257.555 271.882 254.355 288.671C251.155 305.461 234.95 316.477 218.161 313.277C201.371 310.077 190.355 293.872 193.555 277.083C196.755 260.293 212.96 249.277 229.749 252.477Z" fill="url(#paint1_linear_23_32)"/>
</g>
<defs>
<linearGradient id="paint0_linear_23_32" x1="154.916" y1="260.061" x2="203.515" y2="5.08888" gradientUnits="userSpaceOnUse">
<stop stop-color="#D0312D"/>
<stop offset="1" stop-color="#860603"/>
</linearGradient>
<linearGradient id="paint1_linear_23_32" x1="218.161" y1="313.277" x2="229.749" y2="252.477" gradientUnits="userSpaceOnUse">
<stop stop-color="#D0312D"/>
<stop offset="1" stop-color="#860603"/>
</linearGradient>
<clipPath id="clip0_23_32">
<rect width="300" height="300" fill="white" transform="matrix(0.982316 0.187232 0.187232 -0.982316 0 271.695)"/>
</clipPath>
</defs>
</svg>
