<svg width="370" height="444" viewBox="0 0 370 444" fill="none" xmlns="http://www.w3.org/2000/svg">
<g clip-path="url(#clip0_23_37)">
<path d="M422.5 140.295C416.728 133.15 406.243 132.039 399.099 137.787L352.271 175.737L331.976 122.786C331.255 120.799 330.139 119.122 328.849 117.637C324.682 107.913 317.3 99.4965 307.005 94.5141C302.534 92.3882 297.9 91.2098 293.255 90.5919C292.242 90.0379 291.328 89.315 290.165 88.929L209.358 64.865C204.824 63.5422 200.23 64.2656 196.439 66.3923C191.954 67.8244 188.072 70.9974 186.161 75.6675L154.2 153.752C150.736 162.245 154.806 171.968 163.323 175.481C171.792 178.945 181.539 174.852 185.028 166.334L212.023 100.397L248.827 111.33C247.899 112.776 246.901 114.123 246.142 115.669L196.921 217.602C196.212 219.101 195.819 220.629 195.305 222.18L135.983 317.769L38.982 348.329C27.9232 356.298 25.338 371.631 33.2103 382.688C41.1309 393.771 56.5126 396.357 67.5453 388.484L166.818 356.234C169.878 354.094 172.121 351.258 173.832 348.193C175.098 346.899 176.53 345.876 177.509 344.26L212.876 287.269L272.944 340.311L206.403 412.693C197.234 422.67 197.86 438.303 207.887 447.448C217.887 456.666 233.473 455.99 242.691 445.965L325.731 355.668C328.314 352.887 329.882 349.649 330.966 346.256C331.607 344.415 331.641 342.49 331.821 340.568C331.838 339.593 332.219 338.722 332.162 337.82C332.061 331.091 329.447 324.514 324.023 319.763L268.755 270.924C272.867 267.146 276.383 262.626 278.963 257.285L316.7 179.205L327.8 210.426C328.239 213.188 329.117 215.908 331.027 218.208C332.744 220.335 334.961 221.763 337.331 222.779C337.573 222.906 337.865 222.935 338.156 223.013C339.657 223.576 341.183 224.115 342.765 224.216C344.638 224.419 346.543 224.209 348.477 223.707C348.527 223.683 348.551 223.684 348.551 223.684C349.065 223.571 349.575 223.677 350.09 223.467C352.813 222.491 354.914 220.798 356.728 218.807L423.939 163.765C431.085 157.969 428.297 147.44 422.5 140.295Z" fill="url(#paint0_linear_23_37)"/>
<path d="M341.076 5.93843C315.443 5.4871 294.297 25.9012 293.846 51.5347C293.394 77.1681 313.808 98.314 339.442 98.7653C365.075 99.2167 386.221 78.8025 386.672 53.1691C387.124 27.5356 366.71 6.38975 341.076 5.93843Z" fill="url(#paint1_linear_23_37)"/>
</g>
<defs>
<linearGradient id="paint0_linear_23_37" x1="231.891" y1="64.6759" x2="225.037" y2="453.958" gradientUnits="userSpaceOnUse">
<stop offset="0.26" stop-color="#009999"/>
<stop offset="0.75" stop-color="#00FFFF"/>
</linearGradient>
<linearGradient id="paint1_linear_23_37" x1="341.076" y1="5.93843" x2="339.442" y2="98.7653" gradientUnits="userSpaceOnUse">
<stop offset="0.015" stop-color="#009999"/>
<stop offset="1" stop-color="#00FFFF"/>
</linearGradient>
<clipPath id="clip0_23_37">
<rect width="450" height="450" fill="white" transform="translate(7.99579 0.0739136) rotate(1.0087)"/>
</clipPath>
</defs>
</svg>
