<svg width="5120" height="459" viewBox="0 0 5120 459" fill="none" xmlns="http://www.w3.org/2000/svg">
<path d="M279.354 257.459L0 257.459V-3.05176e-05L5120 -3.05176e-05V325.028L4910.73 226.005L4771.06 226.005V325.028H4719.49V412.984H4622.37V325.028L4524.74 325.028V226.005L4293.95 325.028H3996.57L3650.13 226.005L3258.64 226.005V459H3076.41V226.005H2954.75V325.028L2879.16 325.028V459H2702.93V200.958L2560.25 200.958L2557.25 325.028H2402.05L2086.15 183.483H1891.9V412.983L1761.24 412.983V325.028L1630.57 325.028V183.483H1484.89V325.028H1299.65L986.753 151.447H774.483V325.028H604.267V151.447H425.04L279.354 257.459Z" fill="#121212"/>
</svg>
